<?xml version="1.0" standalone="no"?><!DOCTYPE svg PUBLIC "-//W3C//DTD SVG 1.1//EN" "http://www.w3.org/Graphics/SVG/1.1/DTD/svg11.dtd"><svg t="1759924204979" class="icon" viewBox="0 0 1024 1024" version="1.1" xmlns="http://www.w3.org/2000/svg" p-id="6655" xmlns:xlink="http://www.w3.org/1999/xlink" width="200" height="200"><path d="M835.528488 445.176059c-9.406231-10.346649-40.823777-16.808828-83.766822-20.742417-33.508161-99.863429-124.500549-171.48156-231.516888-171.48156l-35.975353 0c-111.144356 0-205.006094 77.249385-235.135298 183.160553-37.157271 10.507308-56.063877 22.732747-56.063877 22.732747-30.755468 23.920806-10.251481 58.094116 30.755468 64.928778 3.558036 0.592494 8.712429 1.134847 15.156188 1.629103l0 0.934279c0 141.550877 109.818151 256.299317 245.286496 256.299317l35.975353 0c135.467321 0 245.286496-114.749464 245.286496-256.299317l0-12.512988C841.130066 495.913627 855.846232 467.525066 835.528488 445.176059zM374.189308 330.695724c-23.921829 44.425815-23.921829 83.724867-23.921829 83.724867l-42.715871 6.834662C307.551608 421.255253 312.677349 351.199711 374.189308 330.695724zM504.047888 667.302065c-58.094116 3.416819-64.929802-41.007973-37.59013-71.76344 27.338648-30.755468 13.668301-30.755468 17.086144-64.929802l33.604352 0c0.36839 0 0.568958 0 0.568958 0 0 0 0 0 0 0-0.001023 0.00614-7.817036 45.887097 6.834662 54.677297C558.725184 605.790106 562.04172 663.891386 504.047888 667.302065z" fill="#1296db" p-id="6656"></path><path d="M523.477402 886.557698c-0.011256 0-0.011256 0-0.022513 0-2.094708 0-4.225231-0.013303-6.346545-0.038886-300.697503-3.799536-351.194594-183.364191-381.366777-290.648636-0.338714-1.208525-0.677429-2.409886-1.014096-3.604084-60.294225-21.61939-69.107961-89.475847-69.478398-92.577488l-0.176009-1.478677 0-1.488911c0-60.537771 24.498974-86.697571 84.300988-132.186601 35.235502-90.155323 103.126752-157.122527 196.758246-193.925734 72.272024-28.40698 135.63412-29.846772 147.602709-29.846772l0.412392 0.002047c8.237615-0.283456 16.464997-0.427742 24.464181-0.427742 90.140996 0 214.008118 19.170618 292.217365 110.497627 32.04995 37.428448 46.031383 75.150584 51.865251 96.734158 9.42772 2.341325 21.580504 6.053879 33.873482 11.725042 48.25605 22.262026 60.193941 55.485709 61.714574 79.43619 4.865821 76.750011-40.421618 104.669898-88.63469 121.571846-2.700505 32.742728-13.218046 103.754039-54.145178 172.412768C773.666558 802.898323 689.038112 886.557698 523.477402 886.557698zM115.148553 494.924089c1.249457 7.339152 9.402137 45.4921 44.663222 52.443419l14.956643 2.949168 4.245697 14.643512c1.620917 5.588275 3.25002 11.384281 4.930289 17.353227 29.764907 105.8467 70.532403 250.810303 333.795319 254.136048 1.911536 0.025583 3.831258 0.036839 5.717212 0.036839 114.057709 0.004093 197.844997-43.534516 249.03589-129.406279 37.97694-63.714114 48.01148-135.942135 48.01148-165.232229l0-18.485003 17.667382-5.441942c57.71754-17.776875 72.79391-34.118052 70.136384-76.020394-2.415003-38.10076-69.168336-48.119951-69.843718-48.210002l-19.120476-2.567475-2.460028-19.153222c-0.046049-0.320295-6.64842-45.99966-45.901423-90.650603-53.023634-60.322877-137.934512-90.908476-252.372891-90.908476-7.575536 0-15.380292 0.13917-23.196305 0.415462l-0.63445 0.021489-1.045819-0.010233c-6.364965 0-64.065108 0.738827-129.285528 26.374694-83.519182 32.828686-140.958382 90.553389-170.719196 171.57161l-2.542916 6.921643-5.889127 4.438079C122.269741 447.647343 115.364471 460.315874 115.148553 494.924089z" fill="#1296db" p-id="6657"></path></svg>